<?xml version="1.0" encoding="utf-8"?>
<!-- Generator: Adobe Illustrator 16.0.0, SVG Export Plug-In . SVG Version: 6.00 Build 0)  -->
<!DOCTYPE svg PUBLIC "-//W3C//DTD SVG 1.1//EN" "http://www.w3.org/Graphics/SVG/1.1/DTD/svg11.dtd" [
	<!ENTITY ns_extend "http://ns.adobe.com/Extensibility/1.0/">
	<!ENTITY ns_ai "http://ns.adobe.com/AdobeIllustrator/10.0/">
	<!ENTITY ns_graphs "http://ns.adobe.com/Graphs/1.0/">
	<!ENTITY ns_vars "http://ns.adobe.com/Variables/1.0/">
	<!ENTITY ns_imrep "http://ns.adobe.com/ImageReplacement/1.0/">
	<!ENTITY ns_sfw "http://ns.adobe.com/SaveForWeb/1.0/">
	<!ENTITY ns_custom "http://ns.adobe.com/GenericCustomNamespace/1.0/">
	<!ENTITY ns_adobe_xpath "http://ns.adobe.com/XPath/1.0/">
]>
<svg version="1.1" id="Capa_1" xmlns:x="&ns_extend;" xmlns:i="&ns_ai;" xmlns:graph="&ns_graphs;"
	 xmlns="http://www.w3.org/2000/svg" xmlns:xlink="http://www.w3.org/1999/xlink" x="0px" y="0px" width="100px" height="100px"
	 viewBox="0 0 100 100" enable-background="new 0 0 100 100" xml:space="preserve">
<metadata>
	<sfw  xmlns="&ns_sfw;">
		<slices></slices>
		<sliceSourceBounds  height="100" width="100" x="0" y="-100" bottomLeftOrigin="true"></sliceSourceBounds>
	</sfw>
</metadata>
<rect display="none" fill="#122230" width="100" height="100"/>
<g>
	<g>
		<path fill="#EAE8E8" d="M71.392,75.992c0,0,0-43.756,0-54.624c-8.293-8.293-33.674-9.08-42.754,0c0,15.756,0,33.111,0,33.111
			c0,17.651,12.869,33.522,42.754,30.234v-4.146c-18.731,0-17.98-19.683-17.98-19.683s0-5.318,4.539-5.318
			C56.997,71.178,62.813,75.276,71.392,75.992z M49.943,50.332c-8.58,0-17.159-4.226-17.159-8.945V24.085
			c17.016,0,17.159,19.812,17.159,19.812s0.143-19.812,17.159-19.812v17.302C67.102,45.065,58.521,50.332,49.943,50.332z"/>
		<circle fill="#EAE8E8" cx="59.952" cy="35.239" r="2.717"/>
		<circle fill="#EAE8E8" cx="39.985" cy="35.239" r="2.717"/>
	</g>
</g>
</svg>
