<?xml version="1.0" encoding="utf-8"?>
<!-- Generator: Adobe Illustrator 16.0.0, SVG Export Plug-In . SVG Version: 6.00 Build 0)  -->
<!DOCTYPE svg PUBLIC "-//W3C//DTD SVG 1.1//EN" "http://www.w3.org/Graphics/SVG/1.1/DTD/svg11.dtd">
<svg version="1.1" id="Capa_1" xmlns="http://www.w3.org/2000/svg" xmlns:xlink="http://www.w3.org/1999/xlink" x="0px" y="0px"
	 width="2000px" height="2000px" viewBox="0 0 2000 2000" enable-background="new 0 0 2000 2000" xml:space="preserve">
<rect x="-1525.545" y="-5012.467" opacity="0" fill="#FFFFFF" width="645.09" height="561.079"/>
<rect x="-1277.5" y="-4707.579" opacity="0" fill="#434F59" width="149" height="29"/>
<rect x="-1983.021" y="-3860.677" opacity="0" fill="#FFFFFF" width="220.955" height="220.955"/>
<text transform="matrix(1 0 0 1 -1525.5449 -4966.2451)" opacity="0" font-family="'MyriadPro-Regular'" font-size="50">REGISTRO</text>
<g>
	<g>
		<linearGradient id="SVGID_1_" gradientUnits="userSpaceOnUse" x1="730.4424" y1="887.001" x2="867.8906" y2="887.001">
			<stop  offset="0" style="stop-color:#2A3A88"/>
			<stop  offset="1" style="stop-color:#32A6DE"/>
		</linearGradient>
		<path fill="url(#SVGID_1_)" d="M867.891,970.561c0,0,0-140.666,0-175.603c-26.663-26.662-108.259-29.191-137.448,0
			c0,50.655,0,106.444,0,106.444c0,56.747,41.371,107.773,137.448,97.2v-13.331c-60.22,0-57.806-63.274-57.806-63.274
			s-0.001-17.099,14.594-17.099C821.614,955.084,840.31,968.262,867.891,970.561z M798.937,888.07
			c-27.582,0.001-55.163-13.585-55.163-28.756v-55.622c54.703,0,55.163,63.692,55.163,63.692s0.46-63.692,55.162-63.692v55.622
			C854.099,871.139,826.517,888.07,798.937,888.07z"/>
		<linearGradient id="SVGID_2_" gradientUnits="userSpaceOnUse" x1="822.3809" y1="839.5479" x2="839.8486" y2="839.5479">
			<stop  offset="0" style="stop-color:#2A3A88"/>
			<stop  offset="1" style="stop-color:#32A6DE"/>
		</linearGradient>
		<circle fill="url(#SVGID_2_)" cx="831.115" cy="839.548" r="8.734"/>
		<linearGradient id="SVGID_3_" gradientUnits="userSpaceOnUse" x1="758.1904" y1="839.5479" x2="775.6592" y2="839.5479">
			<stop  offset="0" style="stop-color:#2A3A88"/>
			<stop  offset="1" style="stop-color:#32A6DE"/>
		</linearGradient>
		<circle fill="url(#SVGID_3_)" cx="766.925" cy="839.548" r="8.734"/>
	</g>
	<g>
		
			<polyline fill-rule="evenodd" clip-rule="evenodd" fill="none" stroke="#824594" stroke-width="2.5" stroke-linecap="round" stroke-miterlimit="10" points="
			913.78,938.626 882.209,938.626 882.209,933.093 918.989,933.093 918.989,943.508 900.112,943.508 900.112,981.264 		"/>
		
			<polyline fill-rule="evenodd" clip-rule="evenodd" fill="none" stroke="#824594" stroke-width="2.5" stroke-linecap="round" stroke-miterlimit="10" points="
			905.644,948.715 905.644,985.82 894.902,985.82 894.902,943.508 882.209,943.508 		"/>
		<polyline fill="none" stroke="#824594" stroke-width="2.5" stroke-linecap="round" stroke-miterlimit="10" points="
			930.706,933.093 930.706,985.82 941.446,985.82 941.446,966.292 946.817,966.21 958.21,985.82 970.415,985.82 961.22,968.651 		
			"/>
		<path fill="none" stroke="#824594" stroke-width="2.5" stroke-linecap="round" stroke-miterlimit="10" d="M962.196,981.996
			l-8.787-15.949c21.074,0,22.375-33.199,0-33.199h-17.333v49.147"/>
		<path fill="none" stroke="#824594" stroke-width="2.5" stroke-linecap="round" stroke-miterlimit="10" d="M1199.983,981.996
			l-8.787-15.949c21.074,0,22.376-33.199,0-33.199h-17.334v49.147"/>
		<path fill="none" stroke="#824594" stroke-width="2.5" stroke-linecap="round" stroke-miterlimit="10" d="M941.773,949.149v6.185
			h9.221c7.134,0,8.028-11.392,0-11.392h-9.221v-5.534h9.221c16.6,0,16.155,22.231-0.444,22.231h-9.221"/>
		<polyline fill="none" stroke="#824594" stroke-width="2.5" stroke-linecap="round" stroke-miterlimit="10" points="
			1168.493,933.093 1168.493,985.82 1179.233,985.82 1179.233,966.292 1184.604,966.21 1195.996,985.82 1208.201,985.82 
			1199.007,968.651 		"/>
		<path fill="none" stroke="#824594" stroke-width="2.5" stroke-linecap="round" stroke-miterlimit="10" d="M1199.983,981.996
			l-8.787-15.949c21.074,0,22.376-33.199,0-33.199h-17.334v49.147"/>
		<path fill="none" stroke="#824594" stroke-width="2.5" stroke-linecap="round" stroke-miterlimit="10" d="M1179.561,949.149v6.185
			h9.222c7.133,0,8.027-11.392,0-11.392h-9.222v-5.534h9.222c16.599,0,16.154,22.231-0.445,22.231h-9.221"/>
		<polyline fill="none" stroke="#824594" stroke-width="2.5" stroke-linecap="round" stroke-miterlimit="10" points="
			1009.581,980.07 994.392,980.07 991.571,985.82 979.202,985.82 1002.854,932.849 1005.675,932.849 1029.978,985.82 
			1018.694,985.82 1013.271,974.863 990.702,974.863 987.882,981.264 		"/>
		<polyline fill="none" stroke="#824594" stroke-width="2.5" stroke-linecap="round" stroke-miterlimit="10" points="
			1022.166,981.264 1004.591,943.508 992.872,969.221 1010.231,969.221 1004.591,957.178 1001.335,964.664 		"/>
		<polyline fill="none" stroke="#824594" stroke-width="2.5" stroke-linecap="round" stroke-miterlimit="10" points="
			1056.45,932.849 1056.45,985.82 1045.601,985.82 1045.601,932.849 1051.025,932.849 1051.025,981.264 		"/>
		<polyline fill="none" stroke="#824594" stroke-width="2.5" stroke-linecap="round" stroke-miterlimit="10" points="
			1068.384,985.82 1068.384,937.541 1107.224,976.165 		"/>
		<polyline fill="none" stroke="#824594" stroke-width="2.5" stroke-linecap="round" stroke-miterlimit="10" points="
			1071.423,932.849 1107.224,967.919 1107.224,938.408 		"/>
		<polyline fill="none" stroke="#824594" stroke-width="2.5" stroke-linecap="round" stroke-miterlimit="10" points="
			1101.584,954.899 1101.584,932.849 1112.651,932.849 1112.651,985.82 1109.396,985.82 1073.819,950.502 1073.819,985.82 
			1079.452,985.82 1079.452,964.447 		"/>
		<path fill="none" stroke="#824594" stroke-width="2.5" stroke-linecap="round" stroke-miterlimit="10" d="M1122.632,932.849
			v52.972h11.066v-18.77l11.502-0.026c18.008,0,19.31-34.176,0-34.176h-16.846l-0.08,22.919l13.02,0.027
			c6.752,0,7.566-11.718,0.216-11.718h-7.595v6.307"/>
		<path fill="none" stroke="#824594" stroke-width="2.5" stroke-linecap="round" stroke-miterlimit="10" d="M1128.056,981.996
			v-20.315h14.756c12.64,0,14.479-23.272,0-23.272h-8.679"/>
		
			<circle fill="none" stroke="#824594" stroke-width="2.5" stroke-linecap="round" stroke-miterlimit="10" cx="1242.68" cy="959.456" r="16.112"/>
		
			<circle fill="none" stroke="#824594" stroke-width="2.5" stroke-linecap="round" stroke-miterlimit="10" cx="1242.679" cy="959.456" r="21.753"/>
		<path fill="none" stroke="#824594" stroke-width="2.5" stroke-linecap="round" stroke-miterlimit="10" d="M1269.559,959.334
			c0,14.845-12.036,26.879-26.878,26.879c-14.847,0-26.882-12.035-26.882-26.879c0-14.844,12.035-26.879,26.882-26.879
			C1257.522,932.455,1269.559,944.49,1269.559,959.334z"/>
	</g>
</g>
</svg>
